<svg width="32" height="32" viewBox="0 0 32 32" fill="none" xmlns="http://www.w3.org/2000/svg">
<g clip-path="url(#clip0_329_3411)">
<path d="M32.0009 24L29.2009 10.6C28.8009 9.2 27.4009 8 25.8009 8H22.0009V5.6C22.0009 3.6 20.4009 2 18.4009 2H13.6009C11.6009 2 10.0009 3.6 10.0009 5.6V8H6.20093C4.60093 8 3.20093 9.2 2.80093 10.6L0.000932232 24C-0.399068 26 1.20093 28 3.40093 28H28.4009C30.8009 28 32.4009 26 32.0009 24ZM12.0009 5.6C12.0009 4.8 12.8009 4 13.6009 4H18.4009C19.2009 4 20.0009 4.8 20.0009 5.6V8H12.0009V5.6ZM22.0009 20H18.0009V24H14.0009V20H10.0009V16H14.0009V12H18.0009V16H22.0009V20Z" fill="#00CD88"/>
</g>
<defs>
<clipPath id="clip0_329_3411">
<rect width="32" height="32" fill="white"/>
</clipPath>
</defs>
</svg>
