<svg width="68" height="32" viewBox="0 0 68 32" fill="none" xmlns="http://www.w3.org/2000/svg">
<g clip-path="url(#clip0_301_1529)">
<path d="M67.5199 0.799927H0.691406V31.2002H67.5199V0.799927Z" fill="white"/>
<path d="M67.7829 31.5H0.391602V0.5H67.7829V31.5ZM0.99197 30.9002H67.2201V1.09976H0.99197V30.9002Z" fill="#1D1D1B"/>
<path d="M6.01982 15.6065H3.95605V5.71045H11.0104V7.43475H6.01982V9.68385H10.41V11.4456H6.01982V15.6065Z" fill="#0090D4"/>
<path d="M19.7164 7.43475H14.4257V9.53391H19.2661V11.2957H14.4257V13.8447H19.9415V15.6065H12.3994V5.71045H19.7164V7.43475Z" fill="#0090D4"/>
<path d="M21.6289 5.71045H26.657C29.2836 5.71045 29.7714 7.65966 29.7714 8.52182C29.7714 9.60888 29.2086 10.546 28.233 10.8834C29.0585 11.2582 29.5087 11.5581 29.5087 13.3949C29.5087 14.8568 29.5087 15.1941 29.959 15.3816V15.6439H27.6701C27.52 15.1566 27.4074 14.6319 27.4074 13.6198C27.4074 12.2703 27.3324 11.7455 25.794 11.7455H23.6551V15.6439H21.6289V5.71045ZM26.0941 10.0587C27.1823 10.0587 27.7076 9.68385 27.7076 8.70924C27.7076 8.18445 27.4825 7.39727 26.2442 7.39727H23.6551V10.0587H26.0941Z" fill="#0090D4"/>
<path d="M31.6104 5.71045H36.6384C39.265 5.71045 39.7528 7.65966 39.7528 8.52182C39.7528 9.60888 39.19 10.546 38.2144 10.8834C39.0399 11.2582 39.4902 11.5581 39.4902 13.3949C39.4902 14.8568 39.4902 15.1941 39.9405 15.3815V15.6439H37.6516C37.5015 15.1566 37.4264 14.6693 37.4264 13.6572C37.4264 12.3078 37.3514 11.783 35.8129 11.783H33.6741V15.6814H31.6479V5.71045H31.6104ZM36.0756 10.0587C37.1638 10.0587 37.6891 9.68385 37.6891 8.70924C37.6891 8.18445 37.4639 7.39727 36.2257 7.39727H33.6366V10.0587H36.0756Z" fill="#0090D4"/>
<path d="M43.5052 5.71045H41.4414V15.6439H43.5052V5.71045Z" fill="#0090D4"/>
<path d="M51.4975 5.71045H53.4487V15.6065H51.3474L47.2949 8.52182V15.6065H45.3438V5.71045H47.5201L51.46 12.6077H51.4975V5.71045Z" fill="#0090D4"/>
<path d="M60.0899 10.2835H64.2549V15.6439H62.8666L62.6414 14.4069C62.1161 15.0066 61.3657 15.9063 59.527 15.9063C57.1256 15.9063 54.9492 14.182 54.9492 10.6959C54.9492 7.99697 56.4501 5.448 59.7897 5.448C62.8291 5.448 64.0298 7.4347 64.1424 8.78415H62.0786C62.0786 8.4093 61.3657 7.1723 59.9023 7.1723C58.4389 7.1723 57.0505 8.18439 57.0505 10.7334C57.0505 13.4323 58.5139 14.1445 59.9398 14.1445C60.3901 14.1445 61.9285 13.9571 62.3413 11.9704H60.0148V10.2835H60.0899Z" fill="#0090D4"/>
<path d="M6.35777 27.7141H5.79492V23.5157H7.67107C8.45905 23.5157 8.90933 24.0031 8.90933 24.6778C8.90933 25.2775 8.57162 25.9148 7.67107 25.9148H6.35777V27.7141ZM6.35777 25.465H7.48346C8.00878 25.465 8.34649 25.2775 8.34649 24.7153C8.34649 24.1905 7.97126 24.0031 7.52098 24.0031H6.35777V25.465Z" fill="#2B2422"/>
<path d="M12.3612 23.5157H12.9241V27.7141H12.3612V25.7648H10.1849V27.7141H9.62207V23.5157H10.1849V25.2775H12.3612V23.5157Z" fill="#2B2422"/>
<path d="M14.4994 26.4771L14.0492 27.6766H13.4863L15.0248 23.5157H15.6627L17.1636 27.6766H16.5632L16.1505 26.4771H14.4994ZM15.9628 25.9897L15.3625 24.153L14.6495 25.9897H15.9628Z" fill="#2B2422"/>
<path d="M18.3275 27.7141H17.7646V23.5157H19.6783C20.3537 23.5157 21.0667 23.7407 21.0667 24.6403C21.0667 25.2401 20.7665 25.465 20.4663 25.6524C20.6914 25.7648 20.9541 25.8398 20.9541 26.4396L20.9916 27.1893C20.9916 27.4142 21.0291 27.5266 21.2168 27.6016V27.6766H20.5414C20.4663 27.4142 20.4288 26.7769 20.4288 26.627C20.4288 26.2896 20.3537 25.8773 19.6783 25.8773H18.3275V27.7141ZM18.3275 25.4275H19.6408C20.0536 25.4275 20.5038 25.315 20.5038 24.7153C20.5038 24.078 20.016 24.0031 19.7534 24.0031H18.3275V25.4275Z" fill="#2B2422"/>
<path d="M25.3437 27.7141V25.2401C25.3437 25.1276 25.3437 24.6028 25.3437 24.1905L24.1805 27.6766H23.6177L22.4544 24.1905C22.4544 24.5653 22.4544 25.0901 22.4544 25.2401V27.7141H21.8916V23.5157H22.7171L23.9178 27.0393L25.1186 23.5157H25.9066V27.6766H25.3437V27.7141Z" fill="#2B2422"/>
<path d="M27.4077 26.4771L26.9574 27.6766H26.3945L27.9705 23.5157H28.6084L30.1093 27.6766H29.5089L29.0962 26.4771H27.4077ZM28.871 25.9897L28.2707 24.153L27.5953 25.9897H28.871Z" fill="#2B2422"/>
<path d="M33.3738 24.7903C33.2237 24.0406 32.6233 23.9281 32.2106 23.9281C31.4601 23.9281 30.8597 24.4904 30.8597 25.5774C30.8597 26.5521 31.1974 27.3017 32.2481 27.3017C32.6233 27.3017 33.2612 27.1143 33.4488 26.1397H34.0117C33.7865 27.7141 32.5107 27.7891 32.173 27.7891C31.2349 27.7891 30.2969 27.1893 30.2969 25.5774C30.2969 24.303 31.0473 23.4033 32.2481 23.4033C33.3362 23.4033 33.8991 24.078 33.9741 24.7528H33.3738V24.7903Z" fill="#2B2422"/>
<path d="M37.8015 27.7141H34.7246V23.5157H37.764V24.0405H35.2875V25.315H37.5764V25.8023H35.2875V27.1893H37.8015V27.7141Z" fill="#2B2422"/>
<path d="M41.8538 23.5157V26.2147C41.8538 27.0768 41.3285 27.789 40.1652 27.789C39.0396 27.789 38.5518 27.0768 38.5518 26.2896V23.5157H39.1146V26.1397C39.1146 27.0393 39.6774 27.3017 40.1652 27.3017C40.6906 27.3017 41.2534 27.0768 41.2534 26.1397V23.5157H41.8538Z" fill="#2B2422"/>
<path d="M42.3799 23.5157H45.757V24.0405H44.3686V27.7141H43.8058V24.0405H42.3799V23.5157Z" fill="#2B2422"/>
<path d="M46.9574 23.5157H46.3945V27.6766H46.9574V23.5157Z" fill="#2B2422"/>
<path d="M50.8601 24.7903C50.71 24.0406 50.1096 23.9281 49.6969 23.9281C48.9464 23.9281 48.346 24.4904 48.346 25.5774C48.346 26.5521 48.6838 27.3017 49.7344 27.3017C50.1096 27.3017 50.7475 27.1143 50.9351 26.1397H51.498C51.2728 27.7141 49.9971 27.7891 49.6594 27.7891C48.7213 27.7891 47.7832 27.1893 47.7832 25.5774C47.7832 24.303 48.5337 23.4033 49.7344 23.4033C50.8226 23.4033 51.3854 24.078 51.4605 24.7528H50.8601V24.7903Z" fill="#2B2422"/>
<path d="M52.7733 26.4771L52.323 27.6766H51.7227L53.2986 23.5157H53.9365L55.4374 27.6766H54.8371L54.4243 26.4771H52.7733ZM54.2367 25.9897L53.6363 24.153L52.9609 25.9897H54.2367Z" fill="#2B2422"/>
<path d="M56.5628 27.1893H58.6641V27.7141H56V23.5157H56.5628V27.1893Z" fill="#2B2422"/>
<path d="M61.7417 24.7528C61.7042 24.1155 61.1788 23.8906 60.691 23.8906C60.3533 23.8906 59.753 24.0031 59.753 24.6403C59.753 24.9777 60.0156 25.1276 60.2408 25.1651L61.4415 25.4275C61.9668 25.5399 62.3796 25.8773 62.3796 26.552C62.3796 27.5266 61.479 27.8265 60.7286 27.8265C59.9406 27.8265 59.6404 27.6016 59.4528 27.4142C59.1151 27.0768 59.04 26.7395 59.04 26.3646H59.5654C59.5654 27.1143 60.1657 27.3392 60.7286 27.3392C61.1413 27.3392 61.8167 27.2268 61.8167 26.627C61.8167 26.1772 61.6291 26.0647 60.9162 25.8773L60.0532 25.6899C59.7905 25.6149 59.1526 25.4275 59.1526 24.7153C59.1526 24.078 59.5654 23.4408 60.5785 23.4408C62.0419 23.4408 62.192 24.3029 62.192 24.7903H61.7417V24.7528Z" fill="#2B2422"/>
<path d="M67.5199 19.6923H0.691406V31.1626H67.5199V19.6923Z" stroke="#1D1D1B" stroke-width="0.323325"/>
</g>
<defs>
<clipPath id="clip0_301_1529">
<rect width="67.3913" height="31" fill="white" transform="translate(0.391602 0.5)"/>
</clipPath>
</defs>
</svg>
