<svg width="32" height="32" viewBox="0 0 32 32" fill="none" xmlns="http://www.w3.org/2000/svg">
<path fill-rule="evenodd" clip-rule="evenodd" d="M10.7088 5.53606C10.7088 4.13268 11.2663 2.78679 12.2586 1.79445C13.251 0.802117 14.5968 0.244629 16.0002 0.244629C17.4036 0.244629 18.7495 0.802117 19.7418 1.79445C20.7342 2.78679 21.2916 4.13268 21.2916 5.53606C21.2916 6.93943 20.7342 8.28533 19.7418 9.27766C18.7495 10.27 17.4036 10.8275 16.0002 10.8275C14.5968 10.8275 13.251 10.27 12.2586 9.27766C11.2663 8.28533 10.7088 6.93943 10.7088 5.53606ZM5.59108 14.2035C6.66821 13.181 8.09674 12.6109 9.58193 12.6109C11.0671 12.6109 12.4957 13.181 13.5728 14.2035L13.5956 14.2263L16.0002 16.6309L18.4071 14.2263L18.4299 14.2035C19.5068 13.1823 20.9344 12.613 22.4185 12.613C23.9026 12.613 25.3302 13.1823 26.4071 14.2035C26.9414 14.7111 27.367 15.3221 27.658 15.9992C27.9491 16.6763 28.0995 17.4056 28.1001 18.1426C28.1007 18.8796 27.9516 19.6091 27.6618 20.2867C27.3719 20.9644 26.9474 21.576 26.4139 22.0846L16.7956 31.4332C16.5823 31.6405 16.2966 31.7565 15.9991 31.7565C15.7016 31.7565 15.4158 31.6405 15.2025 31.4332L5.58651 22.0846C5.05328 21.5762 4.62887 20.9648 4.33903 20.2875C4.04919 19.6101 3.89996 18.881 3.90039 18.1442C3.90082 17.4075 4.0509 16.6785 4.34152 16.0015C4.63214 15.3245 5.05726 14.7113 5.59108 14.2035Z" fill="#00CD88"/>
</svg>
