<svg width="69" height="22" viewBox="0 0 69 22" fill="none" xmlns="http://www.w3.org/2000/svg">
<path d="M32.7698 6.11682H35.7877V15.8824H33.5514V9.31535L30.6905 15.8824L27.6795 9.30709V15.8824H25.5928V6.11682H28.5756L30.726 11.1714L32.7698 6.11682Z" fill="#231F20"/>
<path d="M36.8994 6.11682V15.8824H42.5193V14.2268H39.0781V11.7424H42.377V10.0712H39.0781V7.83066H42.5193V6.11682H36.8994Z" fill="#231F20"/>
<path d="M50.9014 11.0014C50.9014 14.6366 54.6853 17.5454 58.6722 15.5998V13.5076C55.6043 15.6624 52.9338 13.5027 52.9777 11.0849C53.0075 9.47802 54.0845 7.94986 56.1678 7.8307C57.1922 7.7724 57.8862 8.02772 58.6722 8.78222V6.60654C55.7913 4.89485 50.9014 6.77875 50.9014 11.0014Z" fill="#231F20"/>
<path d="M59.5918 15.8824H61.6633V6.21069H59.5918V15.8824Z" fill="#231F20"/>
<path d="M64.2624 10.6456L67.3926 6.23206H64.9733L61.8721 10.6373L65.4725 15.8824H67.848L64.2624 10.6456Z" fill="#231F20"/>
<path d="M43.4883 6.1167V15.8823H45.6745V10.6358L49.2884 15.8823H51.6189L48.7579 11.7818C50.0838 11.2791 50.514 10.1644 50.514 9.05021C50.514 7.93691 49.5819 6.1167 47.3239 6.1167H43.4883ZM45.6745 7.74176H46.6288C48.2423 7.74176 48.3284 8.7993 48.3284 9.19418C48.3284 9.94868 47.6899 10.5912 46.8658 10.5912H45.6745V7.74176Z" fill="#231F20"/>
<path d="M5.97739 6.11699C5.97739 3.41988 8.1582 1.23376 10.8478 1.23376C13.5382 1.23376 15.7182 3.41988 15.7182 6.11699H5.97739ZM5.97739 15.883C5.97739 13.1864 8.1582 10.9998 10.8478 10.9998C8.1582 10.9998 5.97739 8.81411 5.97739 6.11699C3.2878 6.11699 1.10742 8.30313 1.10742 10.9998C1.10742 13.6974 3.2878 15.883 5.97739 15.883ZM5.97739 15.883C5.97739 18.5806 8.1582 20.7663 10.8478 20.7663C13.5382 20.7663 15.7182 18.5806 15.7182 15.883H5.97739ZM10.8478 10.9998C13.5382 10.9998 15.7182 13.1864 15.7182 15.883C18.4082 15.883 20.589 13.6974 20.589 10.9998C20.589 8.30313 18.4082 6.11699 15.7182 6.11699C15.7182 8.81411 13.5382 10.9998 10.8478 10.9998Z" fill="#007A73"/>
</svg>
