<svg width="32" height="32" viewBox="0 0 32 32" fill="none" xmlns="http://www.w3.org/2000/svg">
<path fill-rule="evenodd" clip-rule="evenodd" d="M16.0252 4C13.0138 4 10.2705 4.99467 8.64717 5.80733C8.50051 5.88067 8.36362 5.95222 8.23651 6.022C7.98451 6.15933 7.76984 6.28733 7.59917 6.4L9.44584 9.11867L10.3152 9.46467C13.7125 11.1787 18.2685 11.1787 21.6665 9.46467L22.6532 8.95267L24.3992 6.4C24.0371 6.16474 23.6611 5.95168 23.2732 5.762C21.6578 4.958 18.9798 4 16.0258 4M11.7312 7.07733C11.0774 6.9543 10.4316 6.79223 9.79717 6.592C11.3178 5.91667 13.5838 5.2 16.0258 5.2C17.7172 5.2 19.3165 5.544 20.6392 5.98C19.0892 6.198 17.4352 6.568 15.8592 7.02333C14.6192 7.382 13.1698 7.34333 11.7312 7.07733ZM22.3712 10.4533L22.2072 10.536C18.4698 12.4213 13.5125 12.4213 9.77517 10.536L9.61984 10.4573C4.00451 16.618 -0.282159 27.998 16.0252 27.998C32.3325 27.998 27.9418 16.4067 22.3712 10.4533ZM15.3325 16C14.9789 16 14.6397 16.1405 14.3897 16.3905C14.1397 16.6406 13.9992 16.9797 13.9992 17.3333C13.9992 17.687 14.1397 18.0261 14.3897 18.2761C14.6397 18.5262 14.9789 18.6667 15.3325 18.6667V16ZM16.6658 14.6667V14H15.3325V14.6667C14.6253 14.6667 13.947 14.9476 13.4469 15.4477C12.9468 15.9478 12.6658 16.6261 12.6658 17.3333C12.6658 18.0406 12.9468 18.7189 13.4469 19.219C13.947 19.719 14.6253 20 15.3325 20V22.6667C14.7525 22.6667 14.2585 22.2967 14.0745 21.778C14.0472 21.6931 14.0032 21.6146 13.945 21.5471C13.8868 21.4795 13.8157 21.4244 13.7358 21.3848C13.6559 21.3452 13.5689 21.3221 13.48 21.3167C13.391 21.3113 13.3018 21.3239 13.2178 21.3536C13.1337 21.3833 13.0565 21.4295 12.9906 21.4896C12.9248 21.5497 12.8716 21.6223 12.8343 21.7033C12.7971 21.7843 12.7764 21.8719 12.7735 21.961C12.7707 22.0501 12.7858 22.1388 12.8178 22.222C13.0017 22.742 13.3422 23.1923 13.7926 23.5107C14.2429 23.8291 14.7809 24.0001 15.3325 24V24.6667H16.6658V24C17.3731 24 18.0514 23.719 18.5515 23.219C19.0516 22.7189 19.3325 22.0406 19.3325 21.3333C19.3325 20.6261 19.0516 19.9478 18.5515 19.4477C18.0514 18.9476 17.3731 18.6667 16.6658 18.6667V16C17.2458 16 17.7398 16.37 17.9238 16.8887C17.9511 16.9735 17.9952 17.052 18.0534 17.1196C18.1115 17.1871 18.1827 17.2423 18.2625 17.2819C18.3424 17.3215 18.4294 17.3446 18.5184 17.35C18.6074 17.3553 18.6965 17.3428 18.7806 17.3131C18.8646 17.2834 18.9419 17.2371 19.0077 17.1771C19.0736 17.117 19.1267 17.0443 19.164 16.9634C19.2013 16.8824 19.222 16.7948 19.2248 16.7057C19.2276 16.6166 19.2126 16.5278 19.1805 16.4447C18.9967 15.9246 18.6562 15.4744 18.2058 15.156C17.7554 14.8375 17.2174 14.6666 16.6658 14.6667ZM16.6658 20V22.6667C17.0195 22.6667 17.3586 22.5262 17.6087 22.2761C17.8587 22.0261 17.9992 21.687 17.9992 21.3333C17.9992 20.9797 17.8587 20.6406 17.6087 20.3905C17.3586 20.1405 17.0195 20 16.6658 20Z" fill="#00CD88"/>
</svg>
