<svg width="68" height="28" viewBox="0 0 68 28" fill="none" xmlns="http://www.w3.org/2000/svg">
<g clip-path="url(#clip0_301_1517)">
<path d="M0.277344 15.1477C0.30867 15.058 0.339996 14.9728 0.384747 14.8877C1.44088 12.7495 5.95631 11.8664 12.4274 12.6508L13.7296 7.85443C7.07062 7.00721 2.21061 7.96201 1.40061 10.9968L0.277344 15.1477Z" fill="#0095FF"/>
<path d="M24.5773 10.1539C24.5505 10.2257 24.5236 10.2974 24.4923 10.3691C23.4809 12.5387 18.9476 13.4352 12.4273 12.6463L11.125 17.4427C17.784 18.2899 22.644 17.3351 23.454 14.3004L24.5773 10.1539Z" fill="#0000C9"/>
<path d="M4.53711 5.09756C14.3645 5.80582 24.4023 10.674 23.4536 14.3094L24.3352 11.0639C24.6171 10.0419 24.7558 9.51295 24.7558 9.0871C24.7558 5.38445 15.0671 0.865959 5.83938 0.301147L4.53711 5.09756Z" fill="#0095FF"/>
<path d="M20.3168 20.1995C10.4894 19.4957 0.451601 14.6276 1.40481 10.9922L0.523203 14.2376C0.241269 15.2597 0.102539 15.7886 0.102539 16.2145C0.102539 19.9171 9.79124 24.4356 19.019 25.0004L20.3168 20.1995Z" fill="#0000C9"/>
<path d="M56.1625 19.0699C54.9184 19.0878 54.2561 18.2944 54.2561 16.8868C54.2561 16.7927 54.2606 16.703 54.2651 16.6134H59.1519C59.2504 16.2413 59.313 15.8379 59.313 15.4658C59.313 13.749 58.2614 12.4401 56.1133 12.4401C53.916 12.4401 51.9648 14.6097 51.9648 16.8868C51.9648 19.0699 53.3879 20.3967 55.7598 20.3967C56.8114 20.3967 57.8452 20.0426 58.5702 19.4912L58.1182 18.3571C57.5543 18.7964 56.8607 19.0564 56.1625 19.0699ZM56.1491 13.6683C56.8741 13.6683 57.2455 14.139 57.2455 15.1745C57.2455 15.2731 57.2411 15.3762 57.2276 15.4838H54.4396C54.7439 14.39 55.3928 13.6683 56.1491 13.6683Z" fill="#0000C9"/>
<path d="M36.817 11.9559C36.817 10.1763 35.4297 8.88086 33.3263 8.88086H29.2584L26.1885 20.204H28.7572L29.8894 16.0307H32.1181C34.6689 16.0307 36.817 14.381 36.817 11.9559ZM31.1335 14.7038H30.2519L31.4692 10.2077H32.3955C33.5635 10.2077 34.2214 11.0011 34.2214 12.0501C34.2169 13.7311 32.9012 14.7038 31.1335 14.7038Z" fill="#0000C9"/>
<path d="M40.1638 12.6507L40.4502 11.5973C40.5934 11.046 40.8396 10.1091 41.1752 9.0243C41.5288 7.90812 42.1776 7.21332 43.0503 7.21332C43.471 7.21332 43.7305 7.40607 43.7305 7.72882C43.7126 8.08295 43.4217 8.29363 43.4217 8.86293C43.4217 9.52636 43.9856 10.0419 44.7151 10.0419C45.619 10.0419 46.344 9.31567 46.344 8.42363C46.344 7.04746 45.1671 6.14197 43.3725 6.14197C40.7411 6.14197 39.0137 7.82296 37.9307 11.7542L33.5361 27.7527H36.0243L39.8192 13.888H42.4059L40.7053 20.195H43.1935L45.2297 12.6418H40.1638V12.6507Z" fill="#0000C9"/>
<path d="M52.7568 12.6508H46.1694L45.8427 13.8969H49.0335L44.084 20.204H51.0607L51.383 18.9578H47.7939L52.7568 12.6508Z" fill="#0000C9"/>
<path d="M65.8072 12.5208C64.9167 12.5208 63.9679 13.099 63.2251 14.2959L63.6591 12.6507H61.171L59.1348 20.204H61.6229L62.5448 16.8061C62.9163 15.4165 63.8202 14.0583 64.4199 14.0583C65.0643 14.0583 64.8227 15.2731 65.937 15.2731C66.7425 15.2731 67.2303 14.529 67.2303 13.8476C67.2258 13.0542 66.5993 12.5208 65.8072 12.5208Z" fill="#0000C9"/>
</g>
<defs>
<clipPath id="clip0_301_1517">
<rect width="67.3913" height="27.8551" fill="white" transform="translate(0 0.0725098)"/>
</clipPath>
</defs>
</svg>
